<svg preserveAspectRatio="xMidYMid meet" id="Alfa_Romeo_Logo" xmlns="http://www.w3.org/2000/svg" viewBox="0 0 780 780"><style>.st4{fill:#9d0d16}</style><path d="M761.2 390c0 205-166.2 371.2-371.2 371.2S18.8 595 18.8 390 185 18.8 390 18.8 761.2 185 761.2 390z" fill="#1e1d51"/><linearGradient id="SVGID_1_" gradientUnits="userSpaceOnUse" x1="432.719" y1="295.962" x2="598.76" y2="746.846" gradientTransform="translate(-197.6 -79.99)"><stop offset="0" stop-color="#fff"/><stop offset="1" stop-color="#53eeef"/></linearGradient><path d="M388.6 129.5c-31.7.6-62.1 6.2-90.4 16.1v203.8h90.4V129.5zm-164.5 60.7c-47.1 40-80.4 95.2-91.7 157.7h91.7V190.2zM295 421.6v213c29 9.9 60.2 15.5 92.8 16.1V421.6H295zm-162.8.6c9.4 66.6 43.3 125.5 92.6 167.5V422.2h-92.6z" fill="url(#SVGID_1_)"/><linearGradient id="SVGID_2_" gradientUnits="userSpaceOnUse" x1="595.794" y1="223.467" x2="769.583" y2="721.595" gradientTransform="translate(-197.6 -79.99)"><stop offset="0" stop-color="#2f7fbe"/><stop offset="1" stop-color="#225d8b"/></linearGradient><path d="M395.1 132.1c140.1 2.7 252.8 117.2 252.8 257.9S535.2 645.1 395.1 647.8V132.1z" fill="url(#SVGID_2_)"/><linearGradient id="SVGID_3_" gradientUnits="userSpaceOnUse" x1="2528.126" y1="136.926" x2="2754.573" y2="576.29" gradientTransform="matrix(1.0207 0 0 1.0134 -2407.847 69.869)"><stop offset="0" stop-color="#d50d16"/><stop offset=".5" stop-color="#880d16"/><stop offset="1" stop-color="#520d16"/></linearGradient><path d="M291.4 148.8v206.3h95.7V416h-95.7v215.7c-22.1-9.1-42.7-21.2-61.3-35.6V416h-99.7c-.8-8.5-1.3-17-1.3-25.7 0-11.9.8-23.7 2.4-35.2.1-.9.2-1.8.4-2.6-.1.9-.2 1.8-.4 2.6h98.6V184.5c18.6-14.5 39.2-26.6 61.3-35.7z" fill="url(#SVGID_3_)"/><path class="st4" d="M460.4 218.9h88.7v12.4h-88.7z"/><linearGradient id="SVGID_4_" gradientUnits="userSpaceOnUse" x1="2465.391" y1="77.999" x2="2970.162" y2="509.136" gradientTransform="translate(-2342.906 83.5)"><stop offset="0" stop-color="#f8ffbf"/><stop offset=".509" stop-color="#f8e45e"/><stop offset=".75" stop-color="#f8d35e"/><stop offset="1" stop-color="#ee8e0a"/></linearGradient><path d="M391.1 0c-135-.2-266.5 69.7-338.8 195C-55.4 381.4 8.6 620.1 195 727.7S620.1 771.4 727.7 585C835.4 398.6 771.4 159.9 585 52.3 523.8 16.9 457 .1 391.1 0zM390 18.8c204.9 0 371.2 166.3 371.2 371.2 0 204.9-166.3 371.2-371.2 371.2S18.8 594.9 18.8 390C18.8 185.1 185.1 18.8 390 18.8zm-22.3 13v76.9h23.4V82.8l18.9 25.9 30.8 4.5-26.7-34.5c5.9-1.2 16.9-7.4 16.9-20.6 0-19.6-17.7-25.9-28.8-25.9l-34.5-.4zm29.6 16.9c6.4 0 10.9 4.3 11.1 9.1.2 4.7-3.1 9.9-10.3 9.9h-7.4l-.4-18.5 7-.5zM507.8 53h-1.3c-20.2.4-37.3 12.7-41.4 32.7-4.1 19.9 14 43.6 36.2 48.6 24 5.5 46.5-6 51.5-31.9 4.3-22.2-12-44-36.2-48.6-2.9-.4-5.9-.7-8.8-.8zM224.1 73.4l-21 11.1 9.9 86.8 22.2-16.5-2.9-13.2 24.3-14.4 11.1 8.2 25.5-10.3-69.1-51.7zm284.2.9c1.4 0 2.9.1 4.3.4 11.7 2.2 19.1 12.3 17 23-2 10.7-12.8 18-24.5 15.8-11.7-2.2-17.4-13.5-15.4-24.2 2-9.4 8.7-15 18.6-15zm-283.4 26.6l17.7 13.6-12.8 7.4-4.9-21zM616.1 112l-65.8 45.7 19.3 15.2 31.7-24.7-16.1 39.9 8.2 7.8 40.3-16.5-24.3 32.9 14.8 21 46.5-66.6-14.7-17.6-37.8 15.2 15.2-38.3-17.3-14zM390 121.8C242 121.8 121.7 242 121.7 390S242 658.2 390 658.2 658.3 538 658.3 390C658.2 242 538 121.8 390 121.8zm-245.7 8.7l-32.1 37 55.9 49.8 15.6-18.1-21.4-18.9 15.6-16.9-13.6-12.3-15.6 17.3-7.7-7.4 16.9-18.5-13.6-12zm240.5 1.6V345h-83.5V147.7c26.2-9.6 54.2-15 83.5-15.6zm10.3 0c98.2 1.9 183 58.8 224.9 141.1-.5-.7-1.1-1.4-1.7-2.1-10.3-12.7-23.2-21.2-34.2-28.3-.9-.6-1.9-.8-2.9-.8-1.6 0-3.1.8-4 2.1-2.6 3.5-7.4 6.5-13.7 6.5H516c-2.4 0-4.6.6-6.6 2.1-2 1.4-3.7 3.9-3.7 6.9v5.4l-.3.3c-.5.4-1.4.7-2.4.7h-41v-3.4c0-6.2-3.2-11.9-8.1-15.5l-.1-.1h-.1L436 234.9c-2.9-1.9-6-2.8-9-2.7-1 0-2 .2-2.9.4-3.8.9-6.9 3.3-8.8 6.4-4 6.1-3.1 15.7 4.6 21.2l8.4 6.4.1.1h.1c1.8 1.3 2.7 2.8 2.7 3.2l-.2 13.6v.3c-.2 0-.7-.1-1.6-.4-2-.7-3.5-1.5-5.8-2.4s-5.3-1.6-9.2-1.6c-6.8 0-12.4 3.1-15.9 7.2-1.2 1.4-2.2 3-3 4.6l-.4-159.1zM291 151.7v203.6h93.8v60.1H291v212.8c-21.7-9-41.9-20.9-60.1-35.2V415.4h-97.7c-.8-8.4-1.2-16.8-1.2-25.4 0-11.8.8-23.4 2.3-34.7H231V186.9c18.2-14.3 38.4-26.2 60-35.2zm174.9 39.7c-4.2 0-7.6 3.4-7.6 7.6s3.4 7.6 7.6 7.6c4.2 0 7.6-3.4 7.6-7.6s-3.4-7.6-7.6-7.6zm19.5 0c-4.2 0-7.6 3.4-7.6 7.6s3.4 7.6 7.6 7.6c4.2 0 7.6-3.4 7.6-7.6s-3.4-7.6-7.6-7.6zm19.4 0c-4.2 0-7.6 3.4-7.6 7.6s3.4 7.6 7.6 7.6c4.2 0 7.6-3.4 7.6-7.6s-3.4-7.6-7.6-7.6zm19.4 0c-4.2 0-7.6 3.4-7.6 7.6s3.4 7.6 7.6 7.6c4.2 0 7.6-3.4 7.6-7.6s-3.4-7.6-7.6-7.6zm19.5 0c-4.2 0-7.6 3.4-7.6 7.6 0 4.2 3.4 7.6 7.6 7.6 4.2 0 7.6-3.4 7.6-7.6s-3.4-7.6-7.6-7.6zm-323.1 4V345H136c10.4-59.3 41.1-111.6 84.6-149.6zm239.8 15.9v12.4h88.7v-12.4h-88.7zm0 16.7v12.4h88.7V228h-88.7zm247.1 0l-69.9 28.4 19.7 46.1 18.5-7.8-10.3-23.5 8.6-4.1 9.9 22.6 16.9-7-9.5-21.8 8.2-3.7 9.9 23.4 17.3-7-19.3-45.6zm-638.9 8.7l-9.9 21.8 68.3 31.7 21.8-44.4-16.9-8.6-13.2 23-50.1-23.5zm358.6 5.7c.8 0 1.8.2 3.1 1l17.8 12.1c2.2 1.6 3.7 4.6 3.7 7l-.2 16.7c0 6.6 3.3 12.2 7.6 16.1 2.5 2.3 5.4 4.1 8.5 5.2-3.1 1.1-6 2.9-8.5 5.2-4.3 3.9-7.6 9.5-7.6 16.1l.2 16.8c0 2.4-1.6 5.5-3.9 7.1l-17.7 12c-1.7 1.1-2.8 1.1-3.8.9s-2-1-2.6-2c-1.3-2-1.9-4.4 1.9-7.2l.1-.1.1-.1 8.5-6.5c2.9-2.1 6.9-5.5 6.9-11.5l-.2-13.7c0-2.9-1-6.2-4-8.4-2.9-2.2-7.2-2.5-11.2-1.2-2.9.9-4.8 2-6.3 2.5-1.5.6-2.8.9-5.6.9-3.9 0-6.3-1.5-8.1-3.6-1.8-2.1-2.7-5-2.7-6.9v-1c0-1.9.9-4.8 2.7-6.9 1.8-2.1 4.2-3.6 8.1-3.6 2.8 0 4.1.3 5.6.9 1.5.6 3.4 1.6 6.3 2.5 4 1.3 8.2 1 11.2-1.2 2.9-2.2 4-5.6 4-8.5l.2-13.6c0-6-4.2-9.5-7.1-11.6l-8.4-6.4-.1-.1-.1-.1c-3.8-2.7-3.3-5.1-1.9-7.2.7-1 1.6-1.7 2.6-2 .3.5.6.4.9.4zm155 11.5c9.9 6.5 20.1 13.7 28.1 23.7 9 11.2 15.4 25.5 15.4 46.7 0 39.8-37.2 71.8-72.9 71.8h-86.4c-2.5 0-5 1.1-6.5 2.9s-2.1 3.8-2.1 5.8.7 4.1 2.2 5.8c1.5 1.7 4 2.9 6.4 2.9h84.3c30.3 0 46.5 19.5 46.5 42.6 0 22.5-16.8 43.6-46.3 43.6H464c-2.1 0-4.3 1-5.7 2.5-1.4 1.5-2 3.4-1.9 5.2s.6 3.6 2 5.1c1.4 1.5 3.6 2.5 5.7 2.5h64.7c13.9 0 25.8 13.6 25.8 26.5 0 6.6-1.9 12.6-6 17s-10.7 7.6-21.8 7.6H488c-1.5 0-3.2.3-4.7 1.4s-2.7 3.1-2.7 5.3c.1 2.1 1.3 4 2.7 5 1.4 1 3 1.4 4.6 1.4h25.7c3.6 0 6.3 1.6 8.4 4.2 2.1 2.6 3.4 6.2 3.4 9.1 0 3.6-1.3 6.9-3.7 9-1.5 1.3-3.6 2.3-6.5 2.5.1-1.5.2-3.2-.8-5.2-1.2-2.4-4.5-4.3-7.2-4.3h-15.4c-5.4 0-11.3-2-15.7-5.9-4.4-3.8-7.4-9.3-7.4-17.1 0-7.2 3-12.3 7.3-16 4.3-3.7 9.9-5.6 14.1-5.6H528c1.7 0 3.4-.3 5-1.3s3.2-3 3.2-5.5-1.7-4.6-3.2-5.5c-1.6-1-3.3-1.3-5-1.3h-59.4c-22.9 0-35.6-16.2-35.6-33.6 0-15.6 13.3-34 33.5-34H555c2.4 0 4.9-1.1 6.4-2.8a8 8 0 0 0 2-5.7c0-1.9-.6-3.9-2.1-5.6-1.5-1.7-3.9-2.8-6.3-2.8h-90.1c-25.2 0-45.1-18.7-45.1-46.9 0-23.6 19.3-47.7 47.8-47.7h81.7c4.5 0 8.4-2 10.9-4.9s3.5-6.5 3.6-10.1c0-3.5-1-7.2-3.5-10.1-2.5-2.9-6.5-4.9-11-4.9h-87.1l-.1-4.9c0-3 1.6-6.1 4.3-8.4 2.6-2.4 6.2-3.8 8.3-3.8h48.8c1.9 0 3.8-.4 5.6-1.7 1.8-1.3 3.5-4 3.5-7.4 0-3.5-1-5.3-3.5-7.4-1.8-1.3-3.7-1.7-5.6-1.7h-48.8c-2.2 0-5.7-1.4-8.3-3.8-2.6-2.4-4.3-5.5-4.3-8.5v-3h59.6c3.3 0 6.3-1.1 8.7-2.9 2.4-1.8 4.3-4.6 4.3-8.1V261h29c7.3 0 13.8-2.8 18.5-7.1zm52.6 54.6c8.5 25.6 13.1 53 13.1 81.5 0 90.1-46.2 169.4-116.2 215.5 2.7-3.9 4-8.6 4-13.2 0-5.5-2-11.1-5.7-15.6-.1-.2-.3-.3-.5-.5 11.7-.6 20.7-4.5 26.5-10.8 6.3-6.7 8.8-15.6 8.8-24.1 0-12.6-7.1-24.8-17.8-31.5h3.9c34.6 0 56.6-26.1 56.6-53.9 0-23.5-15.3-44.6-40.8-50.9 36.6-6.9 69.3-39.8 69.3-80.7 0-5.6-.4-10.8-1.2-15.8zm-239.7 1.9c.8 1.6 1.8 3.1 3 4.6 3.5 4.1 9.1 7.2 15.9 7.2 3.9 0 6.9-.7 9.2-1.6 2.3-.9 3.8-1.7 5.8-2.4.9-.3 1.4-.4 1.6-.4v.3l.2 13.7c0 .4-1 1.9-2.7 3.1h-.1l-.1.1-8.5 6.5c-7.6 5.5-8.4 15-4.4 21.1 1.7 2.6 4.2 4.7 7.2 5.8-8.3 10.3-13 23.3-13 36.3 0 28.7 18.6 50.4 43.2 55.8-18.5 6.3-30 24.7-30 42.1 0 22.7 18 43.9 45.9 43.9h2c-.5.4-.9.7-1.4 1.1-6.2 5.3-10.8 13.6-10.8 23.8 0 10.6 4.5 19.2 10.9 24.8 6.4 5.6 14.6 8.4 22.5 8.4h12.9l-.6 1.8c-.6 1.4-.6 3.1.1 4.5s2 2.4 3.6 2.7c3.7.7 7.2.8 10.3.2-36.4 20.8-78.3 33.1-123 34l.3-337.4zm-278 9l-80.2 26.3-2.9 23.8 76.1 41.1-.4-27.6-11.5-5.3 1.7-28.3 13.5-3.4 3.7-26.6zm589.9 2.4c-26.9 0-40.3 22-40.3 44s15.9 44 40.3 44 40.7-20 40.7-44c.1-23.6-14.2-44-40.7-44zm-244.9 15.5h87c1.8 0 2.4.5 3 1.2s1.1 2.1 1.1 3.5-.5 2.7-1.1 3.5-1.3 1.2-3 1.2h-81.7c-2.5 0-4.9.2-7.3.5 1.3-2.5 2-5.3 2-8.2v-1.7zm245.5 8.4c11.8 0 18.7 11.1 18.7 20.2 0 8.9-7.2 20.2-18.7 20.2-11.6 0-18.3-9.8-18.3-20.2s6.4-20.2 18.3-20.2zM81.9 354l-1 15.8-21.8-10.1 22.8-5.7zm52.6 71.7h86.2v158.8c-45.9-39.9-77.5-95.7-86.2-158.8zm166.9 0h83.5v222.1c-29.3-.6-57.3-6-83.5-15.6V425.7z" fill="url(#SVGID_4_)"/><path class="st4" d="M427.2 242.4c.8 0 1.8.2 3.1 1l17.8 12.1c2.2 1.6 3.7 4.6 3.7 7l-.2 16.7c0 6.6 3.3 12.2 7.6 16.1 2.5 2.3 5.4 4.1 8.5 5.2-3.1 1.1-6 2.9-8.5 5.2-4.3 3.9-7.6 9.5-7.6 16.1l.2 16.8c0 2.4-1.6 5.5-3.9 7.1l-17.7 12c-1.7 1.1-2.8 1.1-3.8.9s-2-1-2.6-2c-1.3-2-1.9-4.4 1.9-7.2l.1-.1.1-.1 8.5-6.5c2.9-2.1 6.9-5.5 6.9-11.5l-.2-13.7c0-2.9-1-6.2-4-8.4-2.9-2.2-7.2-2.5-11.2-1.2-2.9.9-4.8 2-6.3 2.5-1.5.6-2.8.9-5.6.9-3.9 0-6.3-1.5-8.1-3.6-1.8-2.1-2.7-5-2.7-6.9v-1c0-1.9.9-4.8 2.7-6.9 1.8-2.1 4.2-3.6 8.1-3.6 2.8 0 4.1.3 5.6.9 1.5.6 3.4 1.6 6.3 2.5 4 1.3 8.2 1 11.2-1.2 2.9-2.2 4-5.6 4-8.5l.2-13.6c0-6-4.2-9.5-7.1-11.6l-8.4-6.4-.1-.1-.1-.1c-3.8-2.7-3.3-5.1-1.9-7.2.7-1 1.6-1.7 2.6-2 .3.5.6.4.9.4z"/><linearGradient id="SVGID_5_" gradientUnits="userSpaceOnUse" x1="683.756" y1="360.978" x2="786.139" y2="665.407" gradientTransform="translate(-197.6 -79.99)"><stop offset="0" stop-color="#157031"/><stop offset="1" stop-color="#0f5324"/></linearGradient><path d="M582.2 253.9c9.9 6.5 20.1 13.7 28.1 23.7 9 11.2 15.4 25.5 15.4 46.7 0 39.8-37.2 71.8-72.9 71.8h-86.4c-2.5 0-5 1.1-6.5 2.9s-2.1 3.8-2.1 5.8.7 4.1 2.2 5.8c1.5 1.7 4 2.9 6.4 2.9h84.3c30.3 0 46.5 19.5 46.5 42.6 0 22.5-16.8 43.6-46.3 43.6H464c-2.1 0-4.3 1-5.7 2.5-1.4 1.5-2 3.4-1.9 5.2s.6 3.6 2 5.1c1.4 1.5 3.6 2.5 5.7 2.5h64.7c13.9 0 25.8 13.6 25.8 26.5 0 6.6-1.9 12.6-6 17s-10.7 7.6-21.8 7.6H488c-1.5 0-3.2.3-4.7 1.4s-2.7 3.1-2.7 5.3c.1 2.1 1.3 4 2.7 5 1.4 1 3 1.4 4.6 1.4h25.7c3.6 0 6.3 1.6 8.4 4.2 2.1 2.6 3.4 6.2 3.4 9.1 0 3.6-1.3 6.9-3.7 9-1.5 1.3-3.6 2.3-6.5 2.5.1-1.5.2-3.2-.8-5.2-1.2-2.4-4.5-4.3-7.2-4.3h-15.4c-5.4 0-11.3-2-15.7-5.9-4.4-3.8-7.4-9.3-7.4-17.1 0-7.2 3-12.3 7.3-16 4.3-3.7 9.9-5.6 14.1-5.6H528c1.7 0 3.4-.3 5-1.3s3.2-3 3.2-5.5-1.7-4.6-3.2-5.5c-1.6-1-3.3-1.3-5-1.3h-59.4c-22.9 0-35.6-16.2-35.6-33.6 0-15.6 13.3-34 33.5-34H555c2.4 0 4.9-1.1 6.4-2.8a8 8 0 0 0 2-5.7c0-1.9-.6-3.9-2.1-5.6-1.5-1.7-3.9-2.8-6.3-2.8h-90.1c-25.2 0-45.1-18.7-45.1-46.9 0-23.6 19.3-47.7 47.8-47.7h81.7c4.5 0 8.4-2 10.9-4.9s3.5-6.5 3.6-10.1c0-3.5-1-7.2-3.5-10.1-2.5-2.9-6.5-4.9-11-4.9h-87.1l-.1-4.9c0-3 1.6-6.1 4.3-8.4 2.6-2.4 6.2-3.8 8.3-3.8h48.8c1.9 0 3.8-.4 5.6-1.7 1.8-1.3 3.5-4 3.5-7.4 0-3.5-1-5.3-3.5-7.4-1.8-1.3-3.7-1.7-5.6-1.7h-48.8c-2.2 0-5.7-1.4-8.3-3.8-2.6-2.4-4.3-5.5-4.3-8.5v-3h59.6c3.3 0 6.3-1.1 8.7-2.9 2.4-1.8 4.3-4.6 4.3-8.1V261h29c7.3 0 13.8-2.8 18.5-7.1z" fill="url(#SVGID_5_)"/></svg>