<svg preserveAspectRatio="xMidYMid meet" xmlns="http://www.w3.org/2000/svg" version="1" width="800" height="800"><path d="M794.575 402.828a392.923 392.923 0 1 1-785.847 0 392.923 392.923 0 1 1 785.847 0z" fill="#9e0000" stroke-width="3.3" stroke-linecap="round" stroke-linejoin="round"/><path d="M758.878 402.828a357.227 357.227 0 1 1-714.454 0 357.227 357.227 0 1 1 714.454 0z" fill="#00002d" stroke="#fff" stroke-width="8.4802975" stroke-linecap="round" stroke-linejoin="round"/><path d="M229.071 362.25h46.147v97.052H229.07V362.25zm57.392 0h44.722l15.222 21.332 13.954-21.332h45.59l-37.365 47.003 40.889 50.049h-46.82l-16.248-24.855-18.418 24.855h-45.296l41.463-50.579-37.693-46.473zm216.472 84.864h-35.254l-5.817 12.188h-44.968l40.678-97.052h48.785l49.623 97.052h-47.147l-5.9-12.188zm-7.784-24.82l-10.433-27.42-10.923 27.42h21.356zm-325.452 20.987h-42.282L121.6 459.3H68.965l54.095-97.051h46.23l49.622 97.052H175.6l-5.9-16.021zm-7.784-20.986l-13.275-34.888-13.192 34.888h26.467zm400.88-60.045h49.477l23.958 56.496 14.931-56.496h42.284l40.892 97.052h-46.292L675.267 401.9 657.5 459.302H628.77l-29.824-56.124v56.124h-36.151V362.25zM215.49 333.823c1.917-3.833 81.784-201.263 81.784-201.263h219.153l81.783 201.263h-161.65l-31.307-113.73-31.308 113.73H215.49zM122.67 565.021c4.518-11.747 29.818-77.708 29.818-77.708h503.297l31.625 77.708H501.272l-14.457-47.89H325.073l-12.65 47.89H122.67z" style="text-align:start;line-height:100%;-inkscape-font-specification:Arial Black" font-size="90.742" font-weight="400" fill="#fff" font-family="Arial Black"/></svg>