<svg preserveAspectRatio="xMidYMid meet" id="Primer_plano" data-name="Primer plano" xmlns="http://www.w3.org/2000/svg" viewBox="0 0 361.93 391.52"><defs><style>.cls-5{fill:#eb212e}</style></defs><path d="M180.51 0s-29.12-.29-55.17 4.35-41.77.92-50.15-3.72C53.78 9 29.67 19.2 29.67 19.2s.12 13.93-11.1 27.86S0 71.17 0 71.17s26 22.31 23.21 32.5S-11.21 214.19 15.74 269s68.39 86.17 120.71 96.59c27.86 5.55 44.62 25.93 44.62 25.93s16.56-20.54 44.42-26.09c52.31-10.42 93.76-41.78 120.71-96.59s-4.64-155.14-7.48-165.33S361.93 71 361.93 71s-7.36-10.19-18.57-24.12S332.26 19 332.26 19 308.14 8.85 286.74.47c-8.38 4.64-24.12 8.38-50.16 3.74S180.51 0 180.51 0z" fill-rule="evenodd" fill="#cbccce"/><path d="M15.91 66.46c9.65-12.13 19.15-23 21.88-39.38C45.23 24 60.3 17.72 74.81 12c10.92 4.73 27.78 7.14 52.06 2.81 25.28-4.51 53.66-4.22 53.66-4.22 30.76-.47 80.34 12.6 106.57 1.25 14.51 5.73 29.58 12 37 15.1 2.74 16.47 12.32 27.34 22 39.54H15.91z" fill="#231f20"/><path d="M195.89 31.05v9.48s12.37.19 17.6.19 4.64-2.11 4.64-4.06.58-5.23-5-5.23-17.24-.38-17.24-.38zm-30.15 12.9L159 30.62l-7.27 13.32h14zm-90.17 9.38H53.05L50 58H37.64l19.82-27.83 14.68-1.87L90.42 56V25.69s27.94-2.27 35.89-2.27 8.8 4.16 8.8 9.67-4.39 6.91-4.89 6.91-.39.79 0 .79 5.64-.14 5.64 3.93v6.5l16.36-29.93 14.85-.1 17.46 34.35V21.77s29.31.73 36.12 1.45 7.83 4.93 7.83 4.93l-.09-4.15s13.35.29 30.9 1.74 27.64 2.85 27.64 2.85V40.3l24.18 2.42v-9.77L322 34.69v23.19h-10.91v-8.1s-3.48-.58-11.17-1-13.12-.68-13.12-.68v9.7h-11.11V35.56s-3.24-.54-10.37-1-10.66-.42-10.66-.42v23.59h-11.17V32.87h-14.6v2.49c0 9.69-5.44 10.19-6.19 10.19s-.4.65-.05.65 5.39-.33 5.39 3.6V58H216.9v-4.7s1-3.38-4.42-3.38h-17.31v8h-22.44l-2.93-5.83h-22.5l-3.16 5.82-12-.06a4.82 4.82 0 0 1 0-2c-3.28 2.63-6 2.13-6 2.13L78.42 58zm25.81-20.56s16.14-1 20-1 2.54 5.31 0 5.42-20 .33-20 .33v-4.75zm-.44 12.6s15.14-.66 20.12-.77 3.54 5.75.44 5.75h-20.78zm-43.71 1.54l13.88-.63-6.64-10.5z" fill="#fff" fill-rule="evenodd"/><path d="M341.36 81c-7 8-13.47 18-11 26.73 2.62 9.42 5.44 20.06 8.06 31.4l-39.08 17.77a2 2 0 0 0-.18-.24l-52.48-61.31a2.69 2.69 0 0 0-1.24-.5l-81.27 7.86c-1.83.18-2.13 2-.45 2.77l50.9 22.84-25.33 11.19c-1.65.73-1.41 2.5.37 2.76l50.15 7.44a3.19 3.19 0 0 0 1.16-.33l17.58-15 9.11 19.44-59.58 15.37a1.54 1.54 0 0 0-1.06 1.68s3.16 16.64 5.08 23.64l-18.15-20.43c-2.56-2.88-10.9 9.76-12.65 11.72l-17.47.59a1.42 1.42 0 0 0-1.39 1.65l3.56 25.62-13-17.82a1.5 1.5 0 0 0-2-.33l-50.56 35.64-10-19.92 22.69-3.47a3.19 3.19 0 0 0 1-.66l27-42.65c1-1.55-.29-2.92-1.91-2.06l-24.77 13.16 16.47-54.23c.53-1.76-1.06-2.74-2.39-1.47l-58.07 55.24a2.68 2.68 0 0 0-.43 1.27l12.09 78.93a2 2 0 0 0 .07.31l-52.11 23.7q-3.39-5.92-6.53-12.29c-21.21-43.13-4.3-114.72 8.05-159.15C34.05 99 27.46 89 20.43 81h320.93z" fill="#ffd32f"/><path class="cls-5" d="M339.05 142c9.39 41.57 15.66 91.65-.67 124.87-25.83 52.53-65.1 82-114.6 91.9C207.77 361.94 193 370 181 381c-12-10.86-26.86-18.87-42.86-22.05-44.64-8.89-81-33.76-106.6-77.09l132.27-60.15-12.93 17.86-5.17-.12c-1.82 0-2.35 1.7-.81 2.67l10.43 6.64a1.7 1.7 0 0 0 1.82-.21l16.26-16.77 3 4-15.28 16.62c-.49.05-9.83.37-5.69 3.16l9.64 6.5a1.68 1.68 0 0 0 1.84-.18l16.65-16.65 3 4-15.09 16.34h-5c-6.18 0 7.92 12.38 10.31 10l16.84-17 3.31 4.39-13.87 16.23-6 .06c-1.76 0-2.26 1.64-.81 2.64l9.4 6.52a1.66 1.66 0 0 0 1.85-.17L203.75 272a9 9 0 0 0 1 1.29 1.13 1.13 0 0 0-.18.58l-.87 24.37a1.41 1.41 0 0 0 .16.54 1.44 1.44 0 0 0-1.36.4l-15.24 17.62a2.71 2.71 0 0 0-.31 1.29l.12.51a1.25 1.25 0 0 0-1.1-.11l-21.66 7a3.23 3.23 0 0 0-.89.8l-.33.75a1.54 1.54 0 0 0-.6-1.34l-26.77-17.2c-.49-.31-1.69-.22-3.12.14l1.42-.54a1.77 1.77 0 0 0 .93-1.51L130 259.85c-.2-1.89-2.24-2.1-2.82-.3l-18 55.42c-.47 1.44.48 2.34 1.89 1.8l17.05-6.48c-2.45 1.27-4.18 2.89-2.75 4.13 10.69 9.28 40.89 39.38 38.1 29.53l-.17-.59c.76 1.12 1.55 1.84 2.25 1.72l33.26-5.81c1.45-.25 1.82-1.47.75-2.48l1.18.05a1.53 1.53 0 0 0 2-.14l28.44-31.34c.76-.83.69-1.72 0-2.15a1.6 1.6 0 0 0 1.21-1.39l.87-36.56c0-1.31-.86-1.93-1.91-1.44l1.14-.76c1.44-1-.17-4.41-.3-4.9l23-.93c3-.12 2.18-11.67 2.26-12.65.13-1.71-1.34-2.36-2.51-1.1l-3.36 3.62-22.21.83-1.56-5.71 24.26-1.7c3-.21 1.76-11.53 1.81-12.69.19-4.67-5.42 1.78-6.23 2.57l-23 .27-1.38-5 24.7-1.5c3-.18 2.49-12.61 2.5-12.64.48-4.74-5.58 1.61-6.35 2.3l-24 .45-1.35-4.94 25.39-1.38a1.76 1.76 0 0 0 1.35-1.17l2.49-12.32c.35-1.8-1.34-2.62-2.53-1.21l-3 3.52c-11.87.09-19-.11-24 0zM350.26 71.76c-2 1.92-4.38 4.26-6.81 6.88H240.74v-9.86H348q1.12 1.47 2.26 2.98z"/><path d="M121.19 78.65H18.33c-2.38-2.56-4.71-4.84-6.67-6.73q1.2-1.59 2.41-3.14h107.12v9.87z" fill="#00783c"/><path fill="#fff" d="M121.19 68.78h119.55v9.87H121.19z"/><path d="M206 273.93l13.64-.29 12.19-8.41-.83 36.56-17.7 1.45-8.12-4.93zm-2.42 26.21l8.13 5.22 18.38-1-28.39 31.38-11.22-9.29-2.12-8.7zm-17.21 19.73l2.13 8.51 10.05 9.48-33.26 5.81-3.88-9.29 3.29-7.54zm-24.7 7l-2.46 7.4 2.86 10.08-35.75-31 8.59-3.65zM128.58 260l4.93 46.72-22.92 8.7zm95.08-27.86l24.68-.29 4.19-4.07-.46 11.3-26 1.82 2.32 8.53 24-.9 3.77-4.06-.87 11.32-24.86 1 1.38 5.06-13.07 8.64-12.86 1.86-1.92-2.55-17.41 17.41-9.4-6.52 6.64-.06 15-17.63-5-6.66-18 18.14-9.29-7.5h5.64l16.35-17.7-4.76-6.28-17.83 17.83-9.64-6.5 5.57-.57 16.51-17.92-4.78-6.34-17.44 18-10.43-6.64 5.93.14 15-20.71 47.55-21.85 29-.21 3.42-4-2.37 12.27-27.19 1.48 2.12 7.77 25.62-.48 4.34-3.88-1.11 11.3-26.48 1.61zm-71.86-35.45l15 20.45-83.25 37.93-12.09-78.93 58.05-55.25L112 178.47l27.86-14.8-27 42.65-24.66 3.77 11.61 23.21zM192.86 175L212 196.6l-44.11 20.11-4-28.9 18.11-.61zM298 157.57l-84.64 38.48h-.12l-4.83-25.46 61.27-15.81L259 132l-19 16.27-50.15-7.44 28.32-12.51-53.87-24.18 81.27-7.86z" fill="#231f20" fill-rule="evenodd"/></svg>