<svg preserveAspectRatio="xMidYMid meet" xmlns="http://www.w3.org/2000/svg" version="1" width="502.942" height="708.661"><path d="M249.695 705.557C114.725 701.655 2.135 607.486 3.111 475.9V3.161l496.726-.056V476.59c-3.5 139.733-115.115 225.065-250.085 228.967h-.057z" fill="#bbbdc0" stroke="#000" stroke-width="6.209" stroke-miterlimit="3.864"/><path d="M249.867 680.71C128.383 677.15 27.04 590.27 27.96 469.014V27.952h447.03V469.59c-3.156 128.83-103.58 207.562-225.064 211.12h-.058z" fill="#fffeff" stroke="#000" stroke-width="15.517" stroke-miterlimit="3.864"/><path d="M251.704 120.63v557.726" fill="none" stroke="#000" stroke-width="6.209" stroke-miterlimit="3.864"/><path d="M29.164 27.952h444.62c.689 0 1.205.574 1.205 1.263v109.261c0 .689-.516 1.263-1.205 1.263H29.164c-.689 0-1.205-.574-1.205-1.263V29.215c0-.689.516-1.263 1.205-1.263z" stroke="#000" stroke-width="1.159" stroke-miterlimit="3.864"/><path d="M4.144 4.137L22.737 22.73M498.804 4.023L480.27 22.616" fill="none" stroke="#211d1e" stroke-width="6.209" stroke-miterlimit="3.864"/><path d="M404.463 187.942c4.59 16.126 4.59 36.555 1.55 52.622 2.524 8.092 6.599 11.764 12.739 14.29 2.525 1.205 9.64 1.95 12.223-1.148-11.248-17.962-1.55-65.132-26.512-65.764M349.43 208.371c-6.14-1.836-9.181-11.132 0-20.429 9.182-2.467 12.912 4.075 20.889.115 18.076-8.952 17.33-6.829 28.061 0 6.083 21.06 2.755 43.728-.86 52.393l-6.083 2.238-6.37 1.377c-11.42 2.582-20.372-2.87-31.562-8.436-3.099-2.467-4.534-5.853-5.566-10.845 8.148 0 14.805 13.026 19.912 6.197 1.492-4.304 3.96-21.978-2.123-26.913-6.657-4.993-10.215 6.197-16.297 4.303" stroke-width="1.082" stroke-miterlimit="3.864"/><path d="M375.943 198.1c3.27-2.124 6.14-2.124 8.493.516-3.788-.517-4.706 3.213-3.788 5.853-1.894-.516-2.812-2.123-4.705-6.37M388.74 199.706c2.811.517 5.68 6.886 4.705 10.043-2.353 2.123-6.14-.517-8.034-1.55 2.353-1.09 5.222-3.73 3.328-8.493M354.308 192.418c2.124 0 3.902 1.492 3.902 3.329 0 1.836-1.778 3.328-3.902 3.328-2.123 0-3.902-1.492-3.902-3.328 0-1.837 1.779-3.329 3.902-3.329" fill="#fffeff" stroke-width="1.082" stroke-miterlimit="3.864"/><path d="M368.655 227.71l-.574-.23c-11.42-4.36-19.626-2.639-28.865-3.557-8.837-.861-17.847-8.895-21.749-18.249-4.533-10.73-5.394-20.773-5.222-23.47 3.041 8.78 5.738 16.699 20.257 23.987 4.361 2.18 11.764 1.894 18.593 3.041 7 1.205 12.911 4.075 18.535 9.928-.115 3.156-.516 6.255-.975 8.55" fill="#d22233" stroke-width="1.082" stroke-miterlimit="3.864"/><path d="M359.588 412.146l10.214 16.7c-8.665 8.033-5.107 20.429-2.008 35.923-10.731 1.262-23.47 9.296-28.062 21.06-1.032 6.829-4.59 11.764-10.214 6.829-16.297-8.092-31.562-18.593-45.85-34.66l-14.806-3.1 5.107-9.927c7.632-1.894 13.772-1.894 20.372-.632l15.322 13.658c11.19 4.935 29.037 4.935 21.404-16.125-5.624-10.56 0-21.06 10.674-27.89l17.847-1.836M299.85 190.984c4.533-1.55 4.189 2.869 8.378 5.05 3.271 4.705.057 14.231-3.845 19.453-2.697 8.895 3.099 25.824 8.952 31.62l9.124 11.19c1.78 6.082 4.82 11.936 10.1 16.526-8.952 6.198-9.41 13.2-11.591 23.241-3.903-8.378-9.297-15.494-8.15-24.847-8.951-8.092-13.542-19.569-18.076-31.046-5.05-12.05 2.296-32.365-2.926-34.488l8.034-16.7" stroke-width="1.082" stroke-miterlimit="3.864"/><path d="M275.289 259.559c4.304-1.836 10.157-4.074 6.025-9.067 0 0 3.673-.287 6.772.172 4.304.632 6.37 1.78 6.37 1.78 1.836 7.746-2.698 17.043 2.065 25.88 10.444 13.428 16.757 17.732 28.636 27.602 5.164-2.066 9.985-3.558 14.748-4.131l-.23-5.165c-7.058.574-8.837 1.55-14.461 4.017 1.033-6.772 2.87-18.42 10.96-21.692 13.257-8.665 34.661 3.099 40.285-27.2 8.665 0 19.281-1.951 24.446-5.567 3.558 6.14 9.296 7.23 9.296 14.002 4.075 13.658 3.96 26.225.919 41.72-6.14 23.527-14.806 27.831-16.872 44.588 1.033 19.224 4.132 36.554 8.206 56.983 11.19 17.962 18.306 16.7 23.93 28.463-8.493 28.004 10.789 35.063 12.854 11.248l.115.746c.23-2.583.402-5.337.344-8.149-.344-25.02-11.304-41.834-16.928-61.402-5.337-18.765-4.419-38.333 1.205-47.286 6.427-10.272 14.805-12.682 17.33-12.452-5.738 6.943-10.903 13.198-7.345 44.359 1.033 9.353 6.484 25.077 10.215 39.595 5.509 21.635 8.378 39.194 2.525 57.041-1.952 5.911-5.05 8.608-7.805 9.87-1.377 1.09-3.099 1.837-8.091 2.525-20.716 6.83-11.535 28.923 6.771 43.785l-2.008 26.685c-1.033 11.132.516 22.265-7.116 22.896l-14.289 14.863-20.888-1.262c2.525-8.034 3.041-9.928 8.149-16.7 5.107-6.828 8.148 6.772 10.157 1.837l5.107-5.567v-30.988c-17.847-15.436-34.144-29.725-42.81-56.352-6.599-21.06-4.59-30.93 2.067-39.596l-11.248-17.387c-20.888-9.24-31.62-11.764-44.875-71.215 7.173-3.673 12.797-4.763 21.577-2.812l-.23-5.567c-6.886-1.55-14.346-1.262-21.347 2.583-11.076-17.847-14.346-28.291-32.079-42.408-3.443-2.754-3.385-9.296-9.181-7.69-1.148-3.902 2.64-10.845-5.28-13.887l2.009-9.698" stroke-width="1.082" stroke-miterlimit="3.864"/><path d="M462.652 59.342l1.664 2.984h1.606l-1.893-3.099c1.205-.057 2.008-.574 2.008-1.893 0-1.665-1.09-2.181-2.984-2.181h-2.697v7.173h1.55v-2.984h.746zm-.746-1.262v-1.722h1.09c.574 0 1.435.057 1.435.803 0 .804-.46.919-1.148.919h-1.377zm1.147 7.23c3.5 0 6.772-2.467 6.772-6.542 0-4.132-3.271-6.6-6.772-6.6-3.558 0-6.829 2.468-6.829 6.6 0 4.075 3.271 6.542 6.83 6.542zm0-1.55c-2.697 0-4.763-2.065-4.763-4.992 0-2.984 2.066-5.05 4.763-5.05 2.583 0 4.706 2.066 4.706 5.05 0 2.927-2.123 4.993-4.706 4.993M395.798 55.44l42.235.057c11.19 0 14.404 4.993 11.248 18.363l-5.05 21.348c-1.148 4.992-.804 7.173.115 9.124h-23.241l.114-5.394h-.23c-2.237 4.361-4.418 5.394-10.73 5.394h-16.584c-10.445 0-12.28-4.59-9.87-14.748l.803-3.558c2.41-10.157 6.484-14.748 16.87-14.748h21.233c3.214 0 4.132-.803 4.649-3.099.516-2.18.057-3.156-3.157-3.156H401.02c-4.132 0-7.288.172-10.272 1.435 1.836-6.83 3.902-9.182 5.05-11.018zm28.578 25.421l-1.665 6.944c-1.434 6.255-2.123 6.944-6.541 6.944h-5.452c-3.5-.058-4.763-.574-3.902-4.132l1.32-5.624c.803-3.5 2.352-4.017 5.91-4.132h10.33M74.957 75.41l14.978-22.438L93.55 75.41H74.957zM95.1 86.428H67.382l-6.37 9.181a11.263 11.263 0 0 0-1.836 3.96c-.516 2.295-.459 2.468.23 4.763H43.453l.63-2.582c3.157-3.329 4.764-5.337 7.576-9.469l34.947-50.728-1.893-3.73h28.463l8.952 57.385c.574 3.386 1.779 6.656 3.328 9.124h-31.62c1.78-2.468 2.067-2.927 2.411-4.361.344-1.55.516-3.558.287-4.993l-1.435-8.55" fill="#fffeff" fill-rule="evenodd" stroke-width="1.082" stroke-miterlimit="3.864"/><path d="M139.458 55.497c.746 2.468 1.492 4.476-.115 11.19l-6.255 26.455c-1.606 6.714-3.213 8.722-5.222 11.19h28.406c-.803-2.468-1.492-4.476.115-11.19l3.672-15.724c1.607-6.656 3.73-8.32 12.912-8.32 6.886 0 7.747.63 10.157 2.41l3.788-16.01H175.61c-7.23 0-10.157 2.065-13.773 7.861h-.23l1.837-7.862h-23.987" fill="#fffeff" stroke-width="1.082" stroke-miterlimit="3.864"/><path d="M350.98 90.847c-.689 2.754-1.722 3.902-4.304 3.902h-9.067c-2.525 0-3.041-1.148-2.41-3.902l5.165-21.864c.688-2.812 1.721-3.96 4.304-3.96h9.066c2.583 0 3.1 1.148 2.41 3.96l-5.164 21.864zm-3.558 15.15c-1.435 5.91-2.754 6.943-7.747 6.943h-20.027c-4.534 0-6.657-.574-9.985-2.353l-2.812 12.223h44.244c11.075 0 16.699-4.648 19.97-18.478l8.493-35.866c1.95-8.435 4.361-11.018 5.624-12.969h-23.299l-2.87 11.994.288-6.83c-.115-3.73-1.55-5.164-6.083-5.164h-18.306c-10.674 0-16.068 6.198-18.191 15.15l-4.361 18.535c-2.124 8.895.344 15.15 10.96 15.15h18.249c4.246 0 6.083-2.812 7.173-4.878h.23l-1.55 6.542M267.37 75.64l1.55-6.657c.688-2.812 1.72-3.96 4.303-3.96h9.583c2.525 0 3.042 1.148 2.41 3.96l-1.606 6.656h-16.24zm36.669 9.583l3.558-14.978c2.41-10.214.516-14.748-9.928-14.748h-35.407c-10.444 0-14.46 4.534-16.87 14.748l-4.592 19.34c-2.41 10.156-.516 14.747 9.928 14.747h48.089l2.754-11.65c-4.131 1.78-6.599 2.067-11.018 2.067h-22.38c-3.73 0-4.878-1.435-4.132-4.993l1.09-4.533h38.908" fill="#fffeff" fill-rule="evenodd" stroke-width="1.082" stroke-miterlimit="3.864"/><path d="M198.737 55.497h-9.985l-2.238 9.526h9.928l-5.682 24.045c-2.869 12.165 2.812 15.264 10.215 15.264h30.644l2.697-11.42c-1.205.517-4.304 1.837-8.837 1.837h-8.15c-4.13 0-4.418-.804-3.73-3.902l6.141-25.824h18.478l2.295-9.526h-18.535l2.468-10.73h-23.241l-2.468 10.73" fill="#fffeff" stroke-width="1.082" stroke-miterlimit="3.864"/><path d="M90.279 464.596l-4.247 20.43m10.158-72.88l-10.961 21.06m-4.533-81.142l9.124 17.33m21.003-73.051L95.27 314.878m-13.715-78.617l7.346 11.132m87.742 19.798l21.003 17.388m-21.921 48.892l21.002 7.46m15.494-8.091l-3.672 25.995m-32.824 37.817l14.633 13.027" fill="none" stroke="#000" stroke-width="5.262" stroke-miterlimit="2.613"/><path d="M72.203 439.347c1.492-14.805-7.23-31.964-11.65-43.957-5.451-14.633 27.66-21.807 35.637-51.991 5.222-19.74-30.53-65.018-21.921-82.348 9.181-18.478 23.126-31.906 31.963-51.934-4.648-8.09-7.575-17.789-9.583-28.577 6.312 11.591 13.944 22.208 22.954 28.405l10.444-8.607c-73.798 93.308-30.644 79.708-21.118 136.634 8.378-2.755 18.995-15.437 25.766-22.495-5.107 10.903-16.24 29.955-25.479 37.128-16.068 27.774-48.376 44.244-19.396 77.872 0 12.108-9.928 15.207-7.346 22.323 7.575 6.656 17.159 14.92 26.512 10.501 7.862 2.468 23.414 15.437 30.185 4.361-1.894-12.108-6.944-22.896-13.256-31.619-1.09-.459-1.721-1.205-1.894-2.123-.573-3.615 7.518-9.01 17.962-11.994 5.968-1.721 11.42-2.295 15.092-1.836 3.5-.746 6.542-.746 8.608.459-5.796 9.928-18.478 51.819 1.78 48.95 4.762-.689 6.426-6.428 7.344-11.764 3.5-21.118 24.274-1.55 27.43-17.33-19.051-24.275-21.404-47.63 2.698-66.28 1.033-17.503-17.445-37.014-21.922-57.615-6.312-29.095 15.322-27.373 15.552-49.524.115-11.936-13.715-23.47-16.47-37.185-2.697-5.51-7.747-14.519-4.074-21.635 2.525 6.542 7.23 9.985 10.559 10.33 9.01-13.486 20.601-22.84 33.742-28.291-20.429 17.273-33.513 42.924-15.207 65.247 4.304.746 8.436 1.434 10.846-5.28.574 6.83-1.607 9.87-3.5 15.609-5.165 19.855-25.193 20.544-18.65 51.991 3.73 17.904 11.017 35.005 21.461 47.056a10.877 10.877 0 0 1 1.607 2.238v-.402c4.534 8.034 11.362-4.877 17.79-6.37-1.206 11.076-7.059 17.503-12.51 21.233-30.53 7.862-35.178 35.35-10.96 58.648 4.59 4.304 11.878 5.853 16.928 7.115-4.878 4.19-18.937 12.453-25.594 14.002-5.337 1.894-11.707-.229-17.847 15.035.574 11.88-9.354 17.618-16.01 17.216-23.47 22.84 54.63 19.339 60.77 26.512-4.476 2.238-9.009 4.993-13.657 6.829-14.748 5.91-34.316 2.066-52.163 10.042-19.97 8.895-41.26 32.25-60.312 38.965-6.427 2.238-10.1.459-16.584 2.123 20.256-16.986 65.361-73.109 24.847-95.489-12.05-6.657-50.384-13.543-51.187-31.791-2.296-5.108-5.395-10.96-4.591-19.626 3.558 7.46 9.813 9.928 14.404 9.239" stroke-width=".917" stroke-miterlimit="2.613"/><path d="M54.585 228.8c.919-2.41-.918-5.107-3.213-6.197l3.156-17.216c-5.853 5.567-4.878 15.207.057 23.414" fill="#fffeff" stroke-width=".917" stroke-miterlimit="2.613"/><path d="M67.497 201.944c11.075-1.95 21.634 5.394 23.585 16.298 1.894 10.96-5.566 21.462-16.584 23.355-11.075 1.952-21.692-5.336-23.585-16.24-1.951-10.96 5.509-21.462 16.584-23.413z" fill="#d22233" stroke="#000" stroke-width="1.572" stroke-miterlimit="2.613"/><path d="M51.773 198.96c2.468 2.755 4.19 3.845 5.682 7.059 2.582-.287 4.992-1.435 6.886-3.214-2.353-3.673-.976-4.59-1.377-9.928l-2.238 6.083-4.247-3.96.574 5.682-5.28-1.722" stroke-width=".274" stroke-miterlimit="2.613"/><path d="M54.643 343.973c-1.148-5.51.057-12.109 4.935-16.527-6.657 2.582-6.026 14.805-4.935 16.527" fill="#fffeff" stroke-width=".274" stroke-miterlimit="2.613"/><path d="M76.679 320.445c11.075 1.95 18.535 12.452 16.584 23.356-1.951 10.903-12.51 18.248-23.585 16.297-11.076-1.951-18.478-12.453-16.585-23.356 1.951-10.96 12.51-18.248 23.586-16.297z" fill="#d22233" stroke="#000" stroke-width="1.572" stroke-miterlimit="2.613"/><path d="M55.905 321.019c2.468 2.697 4.19 3.844 5.624 7.058 2.582-.287 5.05-1.435 6.886-3.214-2.295-3.672-.918-4.59-1.32-9.927l-2.238 6.083-4.246-4.017.574 5.738-5.28-1.721" stroke-width=".274" stroke-miterlimit="2.613"/><path d="M116.906 268.396c11.018-1.95 21.634 5.337 23.585 16.298 1.894 10.903-5.566 21.404-16.584 23.355-11.076 1.952-21.692-5.394-23.586-16.297-1.95-10.903 5.51-21.405 16.585-23.356z" fill="#d22233" stroke="#000" stroke-width="1.572" stroke-miterlimit="2.613"/><path d="M127.35 280.103c1.033-1.492 2.926-1.951 4.189-1.09 1.262.918 1.435 2.811.459 4.304-1.09 1.492-2.927 2.008-4.247 1.09-1.262-.861-1.434-2.812-.401-4.304" stroke-width=".274" stroke-miterlimit="2.613"/><path d="M104.109 383.396c11.247 0 20.429 9.01 20.429 20.085 0 11.133-9.182 20.142-20.43 20.142-11.19 0-20.37-9.01-20.37-20.142 0-11.075 9.18-20.085 20.37-20.085z" fill="#d22233" stroke="#000" stroke-width="1.572" stroke-miterlimit="2.613"/><path d="M108.413 390.684c1.262-1.262 3.213-1.434 4.304-.344 1.09 1.09.918 3.041-.345 4.304-1.262 1.32-3.213 1.434-4.304.344-1.09-1.09-.918-3.041.345-4.304" stroke-width=".274" stroke-miterlimit="2.613"/><path d="M79.204 477.279c11.132-1.55 21.462 6.14 23.011 17.1 1.55 11.018-6.255 21.233-17.388 22.782-11.132 1.607-21.462-6.083-23.011-17.1-1.55-10.961 6.255-21.176 17.388-22.782z" fill="#d22233" stroke="#000" stroke-width="1.572" stroke-miterlimit="2.613"/><path d="M82.245 526.86c-.172-3.673-.803-5.624.057-9.068-2.18-1.377-4.82-2.008-7.345-1.836-.574 4.361-2.18 4.19-5.222 8.608l5.566-3.328.804 5.738 3.156-4.763 2.984 4.648" stroke-width=".274" stroke-miterlimit="2.613"/><path d="M171.422 245.327c11.247 0 20.371 9.067 20.371 20.143 0 11.075-9.124 20.142-20.371 20.142-11.248 0-20.372-9.067-20.372-20.142 0-11.076 9.124-20.143 20.372-20.143z" fill="#d22233" stroke="#000" stroke-width="1.572" stroke-miterlimit="2.613"/><path d="M150.132 249.517c3.5 1.893 5.623 2.525 8.32 5.107 2.41-.918 4.362-2.525 5.51-4.648-3.73-2.812-2.812-4.017-5.28-8.838l.23 6.198-5.739-2.64 2.812 5.108-5.853-.287" stroke-width=".274" stroke-miterlimit="2.613"/><path d="M211.476 299.9c11.19-.803 20.946 7.633 21.75 18.651.746 11.075-7.747 20.716-18.938 21.52-11.19.803-21.003-7.575-21.749-18.65-.803-11.076 7.747-20.717 18.937-21.52z" fill="#d22233" stroke="#000" stroke-width="1.572" stroke-miterlimit="2.613"/><path d="M211.42 291.465c.573 3.615 1.434 5.51.917 9.01 2.296 1.147 4.993 1.492 7.518 1.033.057-4.362 1.721-4.419 4.304-9.067l-5.222 3.902-1.378-5.681-2.64 5.107-3.5-4.304" stroke-width=".274" stroke-miterlimit="2.613"/><path d="M164.65 313.559c11.248 0 20.372 9.009 20.372 20.142 0 11.075-9.124 20.085-20.372 20.085-11.247 0-20.372-9.01-20.372-20.085 0-11.133 9.125-20.142 20.372-20.142z" fill="#d22233" stroke="#000" stroke-width="1.572" stroke-miterlimit="2.613"/><path d="M152.485 328.421c1.836 0 3.328 1.263 3.328 2.812 0 1.55-1.492 2.812-3.328 2.812-1.78 0-3.271-1.262-3.271-2.812 0-1.55 1.492-2.812 3.27-2.812" stroke-width=".274" stroke-miterlimit="2.613"/><path d="M164.708 370.255c11.19 0 20.371 9.01 20.371 20.142 0 11.076-9.181 20.085-20.371 20.085-11.248 0-20.43-9.01-20.43-20.085 0-11.132 9.182-20.142 20.43-20.142z" fill="#d22233" stroke="#000" stroke-width="1.572" stroke-miterlimit="2.613"/><path d="M143.762 377.887c2.468 1.263 3.96 1.665 5.853 3.5a9.064 9.064 0 0 0 4.017-4.016c-2.582-2.009-1.894-2.984-3.558-6.657v4.878l-4.017-1.722 1.894 3.903-4.189.114" stroke-width=".274" stroke-miterlimit="2.613"/><path d="M215.55 381.216c11.191 0 20.373 9.067 20.373 20.142S226.74 421.5 215.55 421.5c-11.248 0-20.43-9.067-20.43-20.142s9.182-20.142 20.43-20.142z" fill="#d22233" stroke="#000" stroke-width="1.572" stroke-miterlimit="2.613"/><path d="M224.388 398.374c1.148-1.377 3.099-1.664 4.247-.689 1.205.976 1.205 2.927.057 4.304-1.148 1.435-3.099 1.722-4.246.746-1.206-1.033-1.206-2.984-.058-4.361" stroke-width=".274" stroke-miterlimit="2.613"/></svg>