<svg preserveAspectRatio="xMidYMid meet" xmlns="http://www.w3.org/2000/svg" viewBox="0 0 200 44.8"><path d="M199.7 1.3c-.7-1.2-2-1.3-2.5-1.3h-80.9c-2.3 0-4.1.7-5.5 2.1-1 1-1.7 2.3-2 3.8 0 0-.1.4-.8.4H92c-.7 0-.8-.3-.8-.4-.3-1.5-1-2.8-2-3.8C87.8.7 86 0 83.7 0H2.8C2.3 0 1 .1.3 1.3c-.3.5-.6 1.5.2 2.8L2 6.6C2.6 7.6 3.3 8 4.7 8c0 0 .7.1 1.2.9l1.5 2.6c.3.6 1.1 2 3.6 2.4 0 0 .8.1 1.2.9l1.9 3.3c.5 1.1 1.3 1.4 2.7 1.9l33.8 9.9c1.1.3 1.6 1.6 1.6 1.6.8 2.1 1.9 3.8 7.1 5.4L87 44.4c.3.1 3.5 1.1 5.9-1.2l6.5-6.2s.3-.3.6-.3c.4 0 .6.3.6.3l6.5 6.2c2.4 2.3 5.6 1.3 5.9 1.2l27.7-7.5c5.3-1.6 6.3-3.3 7.1-5.4 0 0 .5-1.3 1.6-1.6l33.8-9.9c1.4-.4 2.1-.8 2.7-1.9l1.9-3.3c.4-.8 1.2-.9 1.2-.9 2.6-.3 3.3-1.8 3.6-2.4l1.5-2.6c.5-.8 1.1-.9 1.2-.9 1.5-.1 2.1-.5 2.7-1.4l1.5-2.5c.8-1.3.5-2.3.2-2.8zM93 20.2h2.8l-4 14.6c-2.3-.3-4.5-.7-6.6-1.3 2.9-5 6.8-11.7 7.8-13.3zm-1.4 0l-7.7 13c-2.1-.6-4.1-1.3-6.1-2.1 4.2-4.4 9.2-9.6 10.4-10.9h3.4zm-18 0h7.2l-10.1 7.2c-1.8-1.1-3.5-2.2-5.1-3.5 3.8-1.8 7.3-3.4 8-3.7zm-9.1 2.9c-.1-.1-2.4-2-3.4-2.9h9.6l-6.2 2.9zm18.3-2.9h3.9l-10 10.4c-1.7-.7-3.3-1.6-4.9-2.5 4.8-3.5 9.8-7 11-7.9zm.9-18.7c1.9 0 3.4.5 4.4 1.6.8.8 1.3 1.8 1.6 3.1 0 0 .1.2.1.4H50.2c-.6-1-1.6-2.8-1.6-2.8 0-.1-.7-1.3-2-2.2 19-.1 37.1-.1 37.1-.1zm-27 14l-1.5-1.8 3.6-.5v1.9l-2.1.4zm2.1.8v1.5l-1.2-1.2c.5-.2.9-.2 1.2-.3zm-4.4-3.6c-.5-.6-.9-1.2-1.4-1.8l5.8-.4v1.6l-4.4.6zm4.4-3.4l-6.6.4c-.5-.7-.9-1.3-1.3-2h7.9v1.6zm-54-2.7c-1-.1-1.2-.2-1.6-.7 0 0-1.3-2.2-1.4-2.4-.2-.5-.3-.8-.3-1 0-.5.4-1 1.4-1h40.3c2.7 0 4.3 2.8 4.3 2.8.4.7.8 1.4 1.3 2.2h-44zm5.5 5.7c-1-.4-1.4-1-1.6-1.4-.6-1.1-1.4-2.7-1.9-3.2h42.7c.4.7.9 1.3 1.3 2.1l-37.4 2.5c-.6 0-2.3.2-3.1 0zm6.9 5.4c-1.4.2-1.8-.3-1.9-.4l-1.8-3.2c-.1-.2-.3-.4-.4-.6.2 0 38.5-2.6 38.5-2.6.4.6.9 1.2 1.4 1.9l-35.8 4.9zm8.7 3.4c-3.7-1.1-6.7-2-8-2.4l36-4.8c.5.6 1 1.2 1.5 1.9l-24.6 5.1c-.9.2-3.6.6-4.9.2zm12.2 3.6c-2.8-.8-5.6-1.7-8.4-2.5.7-.1 1.3-.2 1.3-.2s17.8-3.7 25.3-5.2c.7.8 1.5 1.7 2.3 2.5l-16.5 5.1s-2.3.7-4 .3zM51 28.5c-.4-.1-4.3-1.3-9.3-2.7.5-.1.8-.2.8-.2s13.9-4.3 17.1-5.3c1.2 1.1 2.5 2.3 3.8 3.4l-8.9 4.2c-.6.2-2.4.9-3.5.6zm7.1 6.5c-3.5-1.3-4-2.6-4.5-3.9 0-.1-.3-.8-.9-1.4 1.2-.2 2.2-.7 2.2-.7l9.4-4.4c1.7 1.3 3.5 2.6 5.3 3.7l-8.3 6c0-.2-1.7 1.1-3.2.7zm10 2.8l-7.4-2c.7-.3 1.2-.7 1.3-.7 0 0 4.1-3 8.7-6.3 1.7 1 3.4 1.9 5.1 2.7l-4.8 5c-.4.5-1.8 1.6-2.9 1.3zm10.3 2.8l-8-2.2c.8-.5 1.4-1.1 1.4-1.1s2.3-2.4 5.2-5.4c2.1.9 4.2 1.6 6.3 2.2l-2.6 4.5c-.3.6-1.4 2.1-2.3 2zm10.4 2.2c-.5.3-1 .3-1.6.2l-7-1.9c.8-.7 1.4-1.7 1.5-1.9 0 0 1.2-2 2.8-4.7 2.2.6 4.6 1.1 6.9 1.4l-1.3 4.9s-.3 1.4-1.3 2zm3-.6c-.5.5-1.1.8-1.7 1 .8-.9 1-2 1.1-2.1l1.4-5c1.7.2 3.5.3 5.3.4-1.5 1.3-6.1 5.7-6.1 5.7zm7.6-6.9c-2.2 0-4.4-.2-6.5-.4L97 20.2h2.4v15.1zm10.9-29.1c.3-1.3.8-2.3 1.6-3.1 1.1-1.1 2.6-1.6 4.4-1.6h37.1c-1.3 1-1.9 2.2-2 2.2-.4.8-1 1.8-1.6 2.8h-39.7c.1-.1.2-.3.2-.3zm30.9 8.9v-1.9l3.6.5-1.5 1.8c-.9-.2-1.6-.3-2.1-.4zm1.2 1.4l-1.2 1.2v-1.5l1.2.3zm-1.2-4.4v-1.6l5.8.4c-.4.6-.9 1.2-1.4 1.8l-4.4-.6zm0-2.8V7.7h7.9c-.4.6-.8 1.3-1.3 2l-6.6-.4zm-22 10.9h7.2l8 3.7c-1.7 1.3-3.4 2.4-5.1 3.5-3.9-2.8-7.9-5.7-10.1-7.2zm9 7.8c-1.6.9-3.3 1.8-4.9 2.5-3.6-3.8-8-8.3-10-10.4h3.9l11 7.9zm1-7.8h9.6c-1 1-3.3 2.9-3.4 2.9-2.3-1.1-4.6-2.2-6.2-2.9zm-20.8 0h3.3L122.1 31c-2 .8-4 1.5-6.1 2.1l-7.6-12.9zm-1.4 0l7.9 13.3c-2.2.6-4.4 1-6.6 1.3l-4-14.6h2.7zm-6.4 15.1V20.2h2.4l4.1 14.7c-2.1.2-4.3.4-6.5.4zm6.6 5.9s-3.7-3.6-5-4.8c1.8-.1 3.5-.2 5.3-.4l1.4 5c0 .2.3 1.3 1.1 2.1-1.2-.3-1.5-.6-2.8-1.9zm5.6 1.8c-.6.1-1.1.1-1.6-.2-1-.6-1.3-2-1.3-2l-1.3-4.9c2.4-.3 4.7-.8 6.9-1.4l2.8 4.7c.1.2.7 1.2 1.5 1.8l-7 2zm8.8-2.4c-.9.1-2-1.4-2.3-1.9l-2.6-4.5c2.2-.6 4.3-1.4 6.3-2.2l5.2 5.4s.6.6 1.4 1.1l-8 2.1zm11.6-3.2l-1.3.4c-1.1.3-2.5-.8-2.9-1.3 0 0-2.1-2.2-4.9-5.1 1.7-.8 3.5-1.7 5.1-2.7L138 35s.5.4 1.3.7c-2 .6-6.1 1.7-6.1 1.7zm13.2-6.4c-.5 1.3-1 2.6-4.5 3.9-1.4.5-3.2-.8-3.2-.8s-3.9-2.8-8.4-6c1.8-1.1 3.6-2.3 5.3-3.7l9.4 4.4c.1 0 1 .5 2.2.7-.5.8-.8 1.4-.8 1.5zm2.6-2.5c-1.2.3-2.9-.4-3.5-.6 0 0-4.4-2.1-8.9-4.2 1.4-1.1 2.6-2.3 3.8-3.4l17.1 5.3s.3.1.8.2l-9.3 2.7zm12.9-3.8c-1.7.5-4-.3-4-.3l-16.5-5.1c.8-.8 1.6-1.7 2.3-2.5L169 22c.1 0 .6.1 1.3.2l-8.4 2.5zm12.2-3.6c-1.3.4-4 0-4.9-.2 0 0-16.9-3.5-24.6-5.1.5-.6 1.1-1.3 1.5-1.9l36 4.8-8 2.4zm12.4-7s-1.5 2.6-1.8 3.1c-.1.1-.5.6-1.9.4L147 12.8c.5-.6 1-1.3 1.4-1.9l38.1 2.5h.4c-.2.3-.3.5-.4.7zm6.3-5.9l-1.5 2.7c-.2.4-.5 1-1.6 1.4-.9.2-2.6.1-3.2 0l-37.4-2.5c.5-.7.9-1.4 1.3-2.1h42.7c-.1.2-.2.3-.3.5zm5.4-4.8l-1.4 2.4c-.3.4-.4.6-1.6.7h-44c.5-.8.9-1.6 1.3-2.2 0 0 1.6-2.8 4.3-2.8h40.3c.4 0 1 .1 1.3.5 0 .1.1.2.1.4 0 .3-.1.6-.3 1z"/><linearGradient id="a" gradientUnits="userSpaceOnUse" x1="430.994" y1="-153.262" x2="443.41" y2="-141.437" gradientTransform="translate(-1141.083 431.635) scale(2.8387)"><stop offset="0" stop-color="#396"/><stop offset="1" stop-color="#004f32"/><stop offset="1" stop-color="#004f32"/></linearGradient><path d="M60 19s-.1 0 0 0V7.7h80.1V19H60z" fill="url(#a)"/><path d="M65.3 9.5H65l-3.4 7.7h.9c.3-.9.6-1.8 1-2.7 0 0 0-.1.1-.2h2.6c.4.8.7 1.8 1.1 2.9h1.3l-3.3-7.7zm-1.5 4.2c.1-.2 1-2.3 1.1-2.5.1.2 1 2.4 1.1 2.5h-2.2zm5.1 2.9c.4.5 1.3.7 1.8.7 1.6 0 2.7-1 2.7-2.5 0-1.2-.9-1.6-1.8-2-.8-.3-1.6-.6-1.6-1.5 0-.7.5-1.2 1.3-1.2.6 0 1 .3 1.3.9h.2l.3-1c-.4-.4-1.1-.5-1.6-.5-1.5 0-2.5.8-2.5 2.1s1 1.7 1.9 2.1c.8.3 1.5.6 1.5 1.5 0 .8-.6 1.5-1.4 1.5-.7 0-1.2-.3-1.7-1.1h-.2l-.2 1zm10.6-6.9h-5.6v.8h.1c.6-.1 1.3-.1 2.3-.1v6.9h1.1v-6.9c.8 0 1.5 0 2.2.1h.1l-.2-.8zm3.9-.2c-2.4 0-4.1 1.6-4.1 3.9s1.6 3.9 4 3.9c2.5 0 4.2-1.6 4.2-4 .1-2.6-2-3.8-4.1-3.8zm2 6.5c-.5.6-1.2.8-2 .8-1.7 0-2.9-1.3-2.9-3.3 0-2.2 1.1-3.6 3-3.6.9 0 1.7.4 2.2 1 .6.7.7 1.4.7 2.3v.2c0 .8-.3 1.9-1 2.6zm9.7-6.3h-.7v5.6l-5.1-5.6h-.5v7.5h.7v-5.8l4.6 5.1.6.7h.4V9.7zm12.1 0h-.3l-1.8 3.3s-1.1 2.1-1.3 2.3c-1.1-1.9-2.1-3.8-3-5.5h-.4v.1c-.1 1.1-.8 5.6-1 7.4v.1h.9v-.1c0-1.1.2-2.6.4-4.3 0 0 .1-.7.1-1 .1.2 1.5 2.9 2.1 4l.6 1.3h.2c.6-1.4 1.5-3.1 2.7-5.3.2 1.3.4 3.9.5 5.4v.1h1.1v-.1c-.1-2.1-.4-4.5-.8-7.7zm5.1-.2h-.3l-3.4 7.7h.9c.3-.9.6-1.8 1-2.7 0 0 0-.1.1-.2h2.6c.4.8.7 1.8 1.1 2.9h1.3l-3.3-7.7zm-1.5 4.2c.1-.2 1-2.3 1.1-2.5.1.2 1 2.4 1.1 2.5h-2.2zm8.1-.2c1.4-.3 2.2-1 2.2-2.1s-.8-1.7-2.5-1.7h-2.4v7.5h1.1v-3.6h.3l.8 1 1.3 1.6.7 1h1.4c.1 0-2.7-3.6-2.9-3.7zm-1.5-.5v-2.8h1.5c.7.1 1.1.6 1.1 1.3 0 .8-.5 1.3-1.3 1.5-.5.1-1.1.1-1.3 0zm9.9-3.3h-5.6v.8h.1c.6-.1 1.3-.1 2.3-.1v6.9h1.1v-6.9c.8 0 1.5 0 2.2.1h.1l-.2-.8zm1 7.5h1V9.7h-1v7.5zm8.3-7.5v5.6l-5.1-5.6h-.5v7.5h.7v-5.8l4.6 5.1.6.7h.4V9.7h-.7z" fill="#fff"/></svg>