<svg preserveAspectRatio="xMidYMid meet" xmlns="http://www.w3.org/2000/svg" xmlns:xlink="http://www.w3.org/1999/xlink" width="300" height="300" version="1"><defs><linearGradient id="b"><stop offset="0" stop-color="#fff"/><stop offset="1" stop-color="#c8c8c8"/></linearGradient><linearGradient id="a"><stop offset="0" stop-color="#b0cde5"/><stop offset=".207" stop-color="#055495"/><stop offset=".461" stop-color="#055495"/><stop offset="1" stop-color="#1e2443"/></linearGradient><radialGradient xlink:href="#a" id="c" gradientUnits="userSpaceOnUse" gradientTransform="matrix(1.26669 .0098 -.00964 1.24701 -44.13 -30.607)" cx="169.712" cy="117.184" fx="169.712" fy="117.184" r="136.876"/><radialGradient xlink:href="#b" id="d" gradientUnits="userSpaceOnUse" gradientTransform="matrix(1.87428 .30204 -.32034 1.98787 -105.141 -134.659)" cx="151.126" cy="84.241" fx="151.126" fy="84.241" r="99.01"/></defs><g fill-rule="evenodd"><path d="M286.876 150a136.876 136.876 0 1 1-273.752 0 136.876 136.876 0 1 1 273.752 0z" style="marker:none" fill="#055495" overflow="visible"/><path d="M284.855 150a134.855 134.855 0 1 1-269.71 0 134.855 134.855 0 1 1 269.71 0z" style="marker:none" fill="#dae7f7" overflow="visible"/><path d="M281.32 150a131.32 131.32 0 1 1-262.64 0 131.32 131.32 0 1 1 262.64 0z" style="marker:none" fill="#055495" overflow="visible"/><path transform="matrix(.94096 0 0 .94096 14.552 -.167)" d="M280.822 159.589a136.876 136.876 0 1 1-273.75 0 136.876 136.876 0 1 1 273.75 0z" style="marker:none" fill="url(#c)" stroke-width=".988" overflow="visible"/><path d="M149.992 23.718c-69.701 0-126.25 56.58-126.25 126.281 0 69.7 56.549 126.281 126.25 126.281 69.7 0 126.28-56.58 126.28-126.28 0-69.701-56.58-126.282-126.28-126.282zm0 8.594c64.96 0 117.687 52.726 117.687 117.687s-52.727 117.688-117.687 117.688c-64.961 0-117.688-52.727-117.688-117.688 0-64.96 52.727-117.687 117.688-117.687z" style="marker:none" fill="#fff" stroke="#000" stroke-width=".988" overflow="visible"/><path d="M158.063 41.813c-2.72.047-6.16.838-10.313 2.624-4.106 1.767-51.685 25.184-70.219 64.657-7.863 16.746-18.78 41.614-22.719 57.312-8.03-15.372-13.645-6.515-11.874 3.781 3.435 19.986 12.41 38.66 25.25 52.032 8.528 8.881 10.732-1.727 6.312-12.625-5.37-13.241-2.102-31.308 3.781-47.469 7.822 9.967 18.034 18.786 23.5 24.5 1.551 20.263 11.398 36.739 15.656 48.719-15.914-2.113-16.432 12.013 2 17.437 13.49 3.97 32.93 4.704 46.72 2.531 7.585-1.195 23.348-5.081-2.25-16.187-10.554-4.578-25.344-25.756-32.095-51.25-10.327-39.002-.33-76.02 6.594-93.438 7.772-19.55 16.848-32.213 25.25-43.437 3.49-4.663 1.357-9.308-5.594-9.188zm36.906 14.75c-31.142.765-45.912 49.318-49.5 78.28-3.605 29.093 3.094 57.28 23.969 82.563 12.836 15.548 37.594 23.372 52.78 5.313 11.055-13.146 18.905-37.576 17.188-57.313-.558-6.415-6.107-10.061-9.812-9.375-3.719.69-5.683 5.71-7.875 12.656-8.036 25.465-17.704 30.68-34.844 16.157-16.063-13.611-13.948-67.457-5.813-91.938 4.805-14.457 19.647-21.378 23-6.062 1.614 7.37-.424 12.24 3.532 16.187 5.49 5.48 19.035 16.024 25.75 6.063 5.315-7.886-9.06-9.532-7.563-24.75 1.706-17.334-12.482-27.376-29.312-27.781a30.802 30.802 0 0 0-1.5 0zm-80.813 37.374c-6.155 22.458-11.592 43.262-11.375 67.157-6.397-4.978-11.519-9.748-16.906-16.906 3.953-20.031 15.652-36.227 28.281-50.25z" style="marker:none" fill="url(#d)" stroke="#000" stroke-width=".988" overflow="visible" transform="translate(3.023 -1.063)"/></g></svg>